<svg xmlns="http://www.w3.org/2000/svg" xmlns:xlink="http://www.w3.org/1999/xlink" version="1.1" x="0px" y="0px" viewBox="0 0 100 125" enable-background="new 0 0 100 100" xml:space="preserve"><g><path fill="#000000" d="M21.62,22.31c-4.141,0-7.5,3.3-7.62,7.44l0,0v0.18v0.6v28.38v0.18l0,0c0.12,4.08,3.479,7.439,7.62,7.439   H38.9L38,70.73h-2.1c-1.2,0-2.16,0.959-2.16,2.16v2.58c0,1.199,0.96,2.219,2.16,2.219h19.14c1.26,0,2.22-1.02,2.22-2.219v-2.58   c0-1.201-0.96-2.16-2.22-2.16H53l-0.96-4.201h8.819v4.92v1.621c0,2.58,2.04,4.619,4.561,4.619h15.96c2.58,0,4.62-2.039,4.62-4.619   v-1.621V46.61v-1.68c0-2.521-2.04-4.62-4.62-4.62H77V29.93v-0.18l0,0c-0.12-4.14-3.48-7.44-7.62-7.44H21.62L21.62,22.31z    M21.62,23.93h47.76c3.3,0,5.939,2.58,6,5.82H15.62C15.68,26.51,18.32,23.93,21.62,23.93L21.62,23.93z M15.62,31.37h59.76v8.94   h-9.96c-2.521,0-4.561,2.1-4.561,4.62v1.68v10.861H15.62V31.37L15.62,31.37z M65.42,41.93h15.96c1.68,0,3,1.319,3,3v0.84H62.42   v-0.84C62.42,43.25,63.739,41.93,65.42,41.93L65.42,41.93z M62.42,47.39h21.96v23.219H62.42V47.39L62.42,47.39z M15.62,59.09   h45.239v5.82h-9.72c-0.06,0-0.06,0-0.06,0H39.92c0,0,0,0-0.06,0H21.62C18.32,64.91,15.68,62.33,15.62,59.09L15.62,59.09z    M40.58,66.529h9.84l0.96,4.201H39.62L40.58,66.529L40.58,66.529z M62.42,72.23h21.96v0.84c0,1.68-1.32,3-3,3H65.42   c-1.681,0-3-1.32-3-3V72.23L62.42,72.23z M35.9,72.291h19.14c0.359,0,0.659,0.299,0.659,0.6v2.58c0,0.359-0.3,0.6-0.659,0.6H35.9   c-0.301,0-0.601-0.24-0.601-0.6v-2.58C35.3,72.59,35.6,72.291,35.9,72.291L35.9,72.291z"/></g><text x="0" y="115" fill="#000000" font-size="5px" font-weight="bold" font-family="'Helvetica Neue', Helvetica, Arial-Unicode, Arial, Sans-serif">Created by artworkbean</text><text x="0" y="120" fill="#000000" font-size="5px" font-weight="bold" font-family="'Helvetica Neue', Helvetica, Arial-Unicode, Arial, Sans-serif">from the Noun Project</text></svg>