<?xml version="1.0" encoding="UTF-8" standalone="no"?>
<svg width="72px" height="56px" viewBox="0 0 72 56" version="1.1" xmlns="http://www.w3.org/2000/svg" xmlns:xlink="http://www.w3.org/1999/xlink">
    <!-- Generator: Sketch 3.8.3 (29802) - http://www.bohemiancoding.com/sketch -->
    <title>icon</title>
    <desc>Created with Sketch.</desc>
    <defs></defs>
    <g id="Page-1" stroke="none" stroke-width="1" fill="none" fill-rule="evenodd">
        <g id="icon" fill="#000000">
            <g id="Page-1">
                <g id="icon">
                    <path d="M7.62,0.31 C3.479,0.31 0.12,3.61 0,7.75 L0,7.75 L0,7.93 L0,8.53 L0,36.91 L0,37.09 L0,37.09 C0.12,41.17 3.479,44.529 7.62,44.529 L24.9,44.529 L24,48.73 L21.9,48.73 C20.7,48.73 19.74,49.689 19.74,50.89 L19.74,53.47 C19.74,54.669 20.7,55.689 21.9,55.689 L41.04,55.689 C42.3,55.689 43.26,54.669 43.26,53.47 L43.26,50.89 C43.26,49.689 42.3,48.73 41.04,48.73 L39,48.73 L38.04,44.529 L46.859,44.529 L46.859,49.449 L46.859,51.07 C46.859,53.65 48.899,55.689 51.42,55.689 L67.38,55.689 C69.96,55.689 72,53.65 72,51.07 L72,49.449 L72,24.61 L72,22.93 C72,20.409 69.96,18.31 67.38,18.31 L63,18.31 L63,7.93 L63,7.75 L63,7.75 C62.88,3.61 59.52,0.31 55.38,0.31 L7.62,0.31 L7.62,0.31 L7.62,0.31 L7.62,0.31 Z M7.62,1.93 L55.38,1.93 C58.68,1.93 61.319,4.51 61.38,7.75 L1.62,7.75 C1.68,4.51 4.32,1.93 7.62,1.93 L7.62,1.93 L7.62,1.93 L7.62,1.93 Z M1.62,9.37 L61.38,9.37 L61.38,18.31 L51.42,18.31 C48.899,18.31 46.859,20.41 46.859,22.93 L46.859,24.61 L46.859,35.471 L1.62,35.471 L1.62,9.37 L1.62,9.37 L1.62,9.37 L1.62,9.37 Z M51.42,19.93 L67.38,19.93 C69.06,19.93 70.38,21.249 70.38,22.93 L70.38,23.77 L48.42,23.77 L48.42,22.93 C48.42,21.25 49.739,19.93 51.42,19.93 L51.42,19.93 L51.42,19.93 L51.42,19.93 Z M48.42,25.39 L70.38,25.39 L70.38,48.609 L48.42,48.609 L48.42,25.39 L48.42,25.39 L48.42,25.39 L48.42,25.39 Z M1.62,37.09 L46.859,37.09 L46.859,42.91 L37.139,42.91 L37.079,42.91 L25.92,42.91 C25.92,42.91 25.92,42.91 25.86,42.91 L7.62,42.91 C4.32,42.91 1.68,40.33 1.62,37.09 L1.62,37.09 L1.62,37.09 L1.62,37.09 Z M26.58,44.529 L36.42,44.529 L37.38,48.73 L25.62,48.73 L26.58,44.529 L26.58,44.529 L26.58,44.529 L26.58,44.529 Z M48.42,50.23 L70.38,50.23 L70.38,51.07 C70.38,52.75 69.06,54.07 67.38,54.07 L51.42,54.07 C49.739,54.07 48.42,52.75 48.42,51.07 L48.42,50.23 L48.42,50.23 L48.42,50.23 L48.42,50.23 Z M21.9,50.291 L41.04,50.291 C41.399,50.291 41.699,50.59 41.699,50.891 L41.699,53.471 C41.699,53.83 41.399,54.071 41.04,54.071 L21.9,54.071 C21.599,54.071 21.299,53.831 21.299,53.471 L21.299,50.891 C21.3,50.59 21.6,50.291 21.9,50.291 L21.9,50.291 L21.9,50.291 L21.9,50.291 Z" id="Shape"></path>
                </g>
            </g>
        </g>
    </g>
</svg>